<svg xmlns="http://www.w3.org/2000/svg" viewBox="0 0 200 200"><path d="M177.777778,13 L22.2222222,13 C9.88888889,13 0,22.84375 0,34.875 L0,166.125 C0,178.15625 9.88888889,188 22.2222222,188 L66.6666667,188 L66.6666667,166.125 L22.2222222,166.125 L22.2222222,56.75 L177.777778,56.75 L177.777778,166.125 L133.333333,166.125 L133.333333,188 L177.777778,188 C190,188 200,178.15625 200,166.125 L200,34.875 C200,22.84375 190.111111,13 177.777778,13 Z M100,78.625 L55.5555556,122.375 L88.8888889,122.375 L88.8888889,188 L111.111111,188 L111.111111,122.375 L144.444444,122.375 L100,78.625 Z"/></svg>
